<svg xmlns="http://www.w3.org/2000/svg" width="960" height="640" viewBox="0 0 960 640">
  <rect width="960" height="640" fill="#fffbeb"/>
  <rect x="120" y="40" width="720" height="560" rx="16" fill="#ffffff" stroke="#fde68a"/>
  <rect x="120" y="40" width="720" height="72" rx="16" fill="#92400e"/>
  <rect x="160" y="66" width="330" height="18" rx="6" fill="#fffbeb"/>
  <rect x="160" y="90" width="260" height="8" rx="4" fill="#fde68a"/>

  <rect x="160" y="136" width="160" height="12" rx="4" fill="#78350f"/>
  <rect x="160" y="158" width="640" height="8" rx="4" fill="#d1d5db"/>
  <rect x="160" y="172" width="620" height="8" rx="4" fill="#d1d5db"/>
  <rect x="160" y="186" width="590" height="8" rx="4" fill="#d1d5db"/>

  <rect x="160" y="220" width="160" height="12" rx="4" fill="#78350f"/>
  <rect x="160" y="242" width="640" height="8" rx="4" fill="#d1d5db"/>
  <rect x="160" y="256" width="620" height="8" rx="4" fill="#d1d5db"/>
  <rect x="160" y="270" width="600" height="8" rx="4" fill="#d1d5db"/>
  <rect x="160" y="284" width="560" height="8" rx="4" fill="#d1d5db"/>

  <rect x="160" y="320" width="160" height="12" rx="4" fill="#78350f"/>
  <rect x="160" y="342" width="640" height="8" rx="4" fill="#d1d5db"/>
  <rect x="160" y="356" width="610" height="8" rx="4" fill="#d1d5db"/>

  <rect x="160" y="390" width="160" height="12" rx="4" fill="#78350f"/>
  <rect x="160" y="412" width="640" height="8" rx="4" fill="#d1d5db"/>
  <rect x="160" y="426" width="620" height="8" rx="4" fill="#d1d5db"/>

  <rect x="160" y="460" width="160" height="12" rx="4" fill="#78350f"/>
  <rect x="160" y="482" width="640" height="8" rx="4" fill="#d1d5db"/>
</svg>
