<svg xmlns="http://www.w3.org/2000/svg" width="960" height="640" viewBox="0 0 960 640">
  <rect width="960" height="640" fill="#ecfeff"/>
  <rect x="120" y="40" width="720" height="560" rx="16" fill="#ffffff" stroke="#99f6e4"/>
  <rect x="120" y="40" width="190" height="560" rx="16" fill="#0f766e"/>
  <rect x="148" y="86" width="132" height="18" rx="6" fill="#ecfeff"/>
  <rect x="148" y="116" width="108" height="8" rx="4" fill="#99f6e4"/>
  <rect x="148" y="150" width="96" height="10" rx="4" fill="#ccfbf1"/>
  <rect x="148" y="168" width="126" height="8" rx="4" fill="#99f6e4"/>
  <rect x="148" y="186" width="120" height="8" rx="4" fill="#99f6e4"/>
  <rect x="148" y="222" width="96" height="10" rx="4" fill="#ccfbf1"/>
  <rect x="148" y="240" width="118" height="8" rx="4" fill="#99f6e4"/>
  <rect x="148" y="258" width="110" height="8" rx="4" fill="#99f6e4"/>
  <rect x="148" y="294" width="96" height="10" rx="4" fill="#ccfbf1"/>
  <rect x="148" y="312" width="124" height="8" rx="4" fill="#99f6e4"/>
  <rect x="148" y="330" width="112" height="8" rx="4" fill="#99f6e4"/>

  <rect x="340" y="84" width="280" height="20" rx="6" fill="#0f172a"/>
  <rect x="340" y="114" width="220" height="10" rx="4" fill="#0f766e"/>
  <rect x="340" y="146" width="420" height="4" rx="2" fill="#a7f3d0"/>

  <rect x="340" y="172" width="130" height="12" rx="4" fill="#134e4a"/>
  <rect x="340" y="194" width="470" height="8" rx="4" fill="#cbd5e1"/>
  <rect x="340" y="208" width="450" height="8" rx="4" fill="#cbd5e1"/>
  <rect x="340" y="222" width="430" height="8" rx="4" fill="#cbd5e1"/>

  <rect x="340" y="256" width="130" height="12" rx="4" fill="#134e4a"/>
  <rect x="340" y="278" width="470" height="8" rx="4" fill="#cbd5e1"/>
  <rect x="340" y="292" width="450" height="8" rx="4" fill="#cbd5e1"/>
  <rect x="340" y="306" width="420" height="8" rx="4" fill="#cbd5e1"/>
  <rect x="340" y="320" width="430" height="8" rx="4" fill="#cbd5e1"/>

  <rect x="340" y="356" width="130" height="12" rx="4" fill="#134e4a"/>
  <rect x="340" y="378" width="470" height="8" rx="4" fill="#cbd5e1"/>
  <rect x="340" y="392" width="450" height="8" rx="4" fill="#cbd5e1"/>
  <rect x="340" y="406" width="400" height="8" rx="4" fill="#cbd5e1"/>
</svg>
